<svg xmlns="http://www.w3.org/2000/svg" xmlns:xlink="http://www.w3.org/1999/xlink" width="294" height="513" viewBox="0 0 294 513">
  <defs>
    <clipPath id="clip-path">
      <rect width="294" height="513" fill="none"/>
    </clipPath>
  </defs>
  <g id="Repeat_Grid_1" data-name="Repeat Grid 1" clip-path="url(#clip-path)">
    <g transform="translate(-1097 -296)">
      <circle id="Ellipse_1" data-name="Ellipse 1" cx="13.5" cy="13.5" r="13.5" transform="translate(1097 296)" fill="#fff"/>
    </g>
    <g transform="translate(-1008 -296)">
      <circle id="Ellipse_1-2" data-name="Ellipse 1" cx="13.5" cy="13.5" r="13.5" transform="translate(1097 296)" fill="#fff"/>
    </g>
    <g transform="translate(-919 -296)">
      <circle id="Ellipse_1-3" data-name="Ellipse 1" cx="13.5" cy="13.5" r="13.5" transform="translate(1097 296)" fill="#fff"/>
    </g>
    <g transform="translate(-830 -296)">
      <circle id="Ellipse_1-4" data-name="Ellipse 1" cx="13.5" cy="13.5" r="13.5" transform="translate(1097 296)" fill="#fff"/>
    </g>
    <g transform="translate(-1097 -215)">
      <circle id="Ellipse_1-5" data-name="Ellipse 1" cx="13.5" cy="13.5" r="13.5" transform="translate(1097 296)" fill="#fff"/>
    </g>
    <g transform="translate(-1008 -215)">
      <circle id="Ellipse_1-6" data-name="Ellipse 1" cx="13.5" cy="13.5" r="13.5" transform="translate(1097 296)" fill="#fff"/>
    </g>
    <g transform="translate(-919 -215)">
      <circle id="Ellipse_1-7" data-name="Ellipse 1" cx="13.5" cy="13.5" r="13.5" transform="translate(1097 296)" fill="#fff"/>
    </g>
    <g transform="translate(-830 -215)">
      <circle id="Ellipse_1-8" data-name="Ellipse 1" cx="13.5" cy="13.5" r="13.5" transform="translate(1097 296)" fill="#fff"/>
    </g>
    <g transform="translate(-1097 -134)">
      <circle id="Ellipse_1-9" data-name="Ellipse 1" cx="13.5" cy="13.5" r="13.5" transform="translate(1097 296)" fill="#fff"/>
    </g>
    <g transform="translate(-1008 -134)">
      <circle id="Ellipse_1-10" data-name="Ellipse 1" cx="13.5" cy="13.5" r="13.5" transform="translate(1097 296)" fill="#fff"/>
    </g>
    <g transform="translate(-919 -134)">
      <circle id="Ellipse_1-11" data-name="Ellipse 1" cx="13.5" cy="13.5" r="13.5" transform="translate(1097 296)" fill="#fff"/>
    </g>
    <g transform="translate(-830 -134)">
      <circle id="Ellipse_1-12" data-name="Ellipse 1" cx="13.5" cy="13.5" r="13.5" transform="translate(1097 296)" fill="#fff"/>
    </g>
    <g transform="translate(-1097 -53)">
      <circle id="Ellipse_1-13" data-name="Ellipse 1" cx="13.5" cy="13.5" r="13.5" transform="translate(1097 296)" fill="#fff"/>
    </g>
    <g transform="translate(-1008 -53)">
      <circle id="Ellipse_1-14" data-name="Ellipse 1" cx="13.5" cy="13.5" r="13.5" transform="translate(1097 296)" fill="#fff"/>
    </g>
    <g transform="translate(-919 -53)">
      <circle id="Ellipse_1-15" data-name="Ellipse 1" cx="13.5" cy="13.5" r="13.5" transform="translate(1097 296)" fill="#fff"/>
    </g>
    <g transform="translate(-830 -53)">
      <circle id="Ellipse_1-16" data-name="Ellipse 1" cx="13.5" cy="13.5" r="13.5" transform="translate(1097 296)" fill="#fff"/>
    </g>
    <g transform="translate(-1097 28)">
      <circle id="Ellipse_1-17" data-name="Ellipse 1" cx="13.5" cy="13.5" r="13.5" transform="translate(1097 296)" fill="#fff"/>
    </g>
    <g transform="translate(-1008 28)">
      <circle id="Ellipse_1-18" data-name="Ellipse 1" cx="13.5" cy="13.5" r="13.5" transform="translate(1097 296)" fill="#fff"/>
    </g>
    <g transform="translate(-919 28)">
      <circle id="Ellipse_1-19" data-name="Ellipse 1" cx="13.5" cy="13.5" r="13.5" transform="translate(1097 296)" fill="#fff"/>
    </g>
    <g transform="translate(-830 28)">
      <circle id="Ellipse_1-20" data-name="Ellipse 1" cx="13.5" cy="13.5" r="13.5" transform="translate(1097 296)" fill="#fff"/>
    </g>
    <g transform="translate(-1097 109)">
      <circle id="Ellipse_1-21" data-name="Ellipse 1" cx="13.5" cy="13.5" r="13.5" transform="translate(1097 296)" fill="#fff"/>
    </g>
    <g transform="translate(-1008 109)">
      <circle id="Ellipse_1-22" data-name="Ellipse 1" cx="13.5" cy="13.5" r="13.5" transform="translate(1097 296)" fill="#fff"/>
    </g>
    <g transform="translate(-919 109)">
      <circle id="Ellipse_1-23" data-name="Ellipse 1" cx="13.5" cy="13.5" r="13.5" transform="translate(1097 296)" fill="#fff"/>
    </g>
    <g transform="translate(-830 109)">
      <circle id="Ellipse_1-24" data-name="Ellipse 1" cx="13.5" cy="13.5" r="13.5" transform="translate(1097 296)" fill="#fff"/>
    </g>
    <g transform="translate(-1097 190)">
      <circle id="Ellipse_1-25" data-name="Ellipse 1" cx="13.5" cy="13.5" r="13.5" transform="translate(1097 296)" fill="#fff"/>
    </g>
    <g transform="translate(-1008 190)">
      <circle id="Ellipse_1-26" data-name="Ellipse 1" cx="13.5" cy="13.5" r="13.5" transform="translate(1097 296)" fill="#fff"/>
    </g>
    <g transform="translate(-919 190)">
      <circle id="Ellipse_1-27" data-name="Ellipse 1" cx="13.5" cy="13.5" r="13.5" transform="translate(1097 296)" fill="#fff"/>
    </g>
    <g transform="translate(-830 190)">
      <circle id="Ellipse_1-28" data-name="Ellipse 1" cx="13.5" cy="13.5" r="13.5" transform="translate(1097 296)" fill="#fff"/>
    </g>
  </g>
</svg>
