<svg xmlns="http://www.w3.org/2000/svg" width="105.982" height="44.5" viewBox="0 0 105.982 44.5"><defs><style>.a,.c{fill:#1b498e;}.a{font-size:19.3px;font-family:Poppins;font-weight:700;}.b{fill:#000;}</style></defs><text class="a" transform="translate(0 29.25)"><tspan class="b" x="0" y="0">Invent</tspan><tspan class="c" y="0">IO</tspan></text><path class="c" d="M44.146,8.544a32.329,32.329,0,0,0-43.792,0,1.105,1.105,0,0,0-.024,1.6L2.71,12.5a1.129,1.129,0,0,0,1.557.026,26.676,26.676,0,0,1,35.965,0A1.13,1.13,0,0,0,41.79,12.5l2.381-2.362a1.106,1.106,0,0,0-.025-1.6ZM22.25,22.25A4.45,4.45,0,1,0,26.7,26.7,4.45,4.45,0,0,0,22.25,22.25Zm14.092-5.812a21.346,21.346,0,0,0-28.184,0,1.1,1.1,0,0,0-.04,1.61l2.395,2.363a1.135,1.135,0,0,0,1.533.056,15.66,15.66,0,0,1,20.407,0,1.134,1.134,0,0,0,1.533-.056l2.395-2.363A1.1,1.1,0,0,0,36.341,16.438Z" transform="translate(105.982 0) rotate(90)"/></svg>
